<svg xmlns="http://www.w3.org/2000/svg" width="23.978" height="23.979" viewBox="0 0 23.978 23.979"><path d="M1.508,21.431A1.508,1.508,0,0,1,0,19.923V1.508A1.508,1.508,0,0,1,1.508,0h2.1A1.508,1.508,0,0,1,5.117,1.508V19.923A1.508,1.508,0,0,1,3.61,21.431Z" transform="translate(5.206 8.825) rotate(-45)" fill="#fff"/><rect width="3.276" height="4.922" transform="translate(6.518 8.834) rotate(-45)" fill="#fff"/><path d="M3.412,0A.928.928,0,0,1,3.43,1.855H.928A.928.928,0,0,1,.909,0h2.5Z" transform="translate(0 7.453)" fill="#fff"/><path d="M.272.272a.928.928,0,0,1,1.3-.015l.015.015L3.34,2.028a.928.928,0,0,1-1.3,1.327L2.028,3.34.272,1.583A.928.928,0,0,1,.272.272Z" transform="translate(2.183 2.183)" fill="#fff"/><path d="M.928,0a.928.928,0,0,1,.927.909v2.5A.928.928,0,0,1,0,3.43V.928A.928.928,0,0,1,.928,0Z" transform="translate(7.453)" fill="#fff"/><path d="M2.028.272a.928.928,0,0,1,1.327,1.3l-.015.015L1.583,3.34a.928.928,0,0,1-1.327-1.3l.015-.015Z" transform="translate(10.967 2.183)" fill="#fff"/><path d="M2.028.272a.928.928,0,0,1,1.327,1.3l-.015.015L1.583,3.34a.928.928,0,0,1-1.327-1.3l.015-.015Z" transform="translate(2.183 10.967)" fill="#fff"/></svg>